<?xml version="1.0" encoding="utf-8"?>
<!-- Generator: Adobe Illustrator 27.5.0, SVG Export Plug-In . SVG Version: 6.00 Build 0)  -->
<svg version="1.1" id="Camada_1" xmlns="http://www.w3.org/2000/svg" xmlns:xlink="http://www.w3.org/1999/xlink" x="0px" y="0px"
	 viewBox="0 0 115 32" style="enable-background:new 0 0 115 32;" xml:space="preserve">
<style type="text/css">
	.st0{fill:#34302D;}
	.st1{fill:#FFFFFF;}
	.st2{fill:#F78F20;}
</style>
<g>
	<path class="st0" d="M15.46,13.84c-0.43-4-3.12-7-6.02-6.69c-2.89,0.31-4.89,3.81-4.46,7.81c0.43,4,3.12,7,6.02,6.69
		C13.89,21.34,15.89,17.84,15.46,13.84z M11.29,18.96c-0.91,0-1.64-1.03-1.64-2.3c0-1.27,0.74-2.3,1.64-2.3
		c0.91,0,1.64,1.03,1.64,2.3C12.94,17.93,12.2,18.96,11.29,18.96z M19.9,14.1c1.01,0,1.82,1.15,1.82,2.56
		c0,1.41-0.82,2.56-1.82,2.56c-1.01,0-1.82-1.15-1.82-2.56C18.07,15.24,18.89,14.1,19.9,14.1z M33.5,3.03
		c-0.49-0.82-1.51-0.82-2.8-0.82c-1.09,0-2.42,0-3.69-0.44c0.31,1.05,0.84,1.94,1.63,2.69c-0.75-0.36-1.39-0.81-1.93-1.44
		c-0.6-0.69-1.13-2.13-1.8-2.66c-0.14-0.11-0.38-0.24-0.57-0.29c-1.54-0.43-3.63,1.53-4.78,3.31H5.17c-2.63,0-4.76,2.14-4.76,4.76
		v19.1c0,2.63,2.14,4.76,4.76,4.76h19.19c2.63,0,4.76-2.14,4.76-4.76V13.99c1.28-0.65,1.91-2.61,2.61-4.84
		c0.45-1.41,0.91-2.87,1.54-4.04C33.48,4.76,33.98,3.82,33.5,3.03z M24.37,30.17h-7.86v-1.88c2.71-0.22,4.77-1.39,4.77-2.81
		c0-1.57-2.55-2.84-5.69-2.84c-3.14,0-5.69,1.27-5.69,2.84c0,1.42,2.07,2.59,4.77,2.81v1.88H5.17c-1.62,0-2.93-1.32-2.93-2.93V8.14
		c0-1.62,1.32-2.93,2.93-2.93h14.91c0.32,0,0.63-0.17,0.8-0.47c0.8-1.43,2.04-2.52,2.7-2.82c-0.03,0.32-0.11,0.77-0.17,1.13
		c-0.42,2.41-1.12,6.45,2.47,9.98c0.49,0.48,0.96,0.81,1.41,1v13.21C27.3,28.85,25.98,30.17,24.37,30.17z"/>
	<path class="st1" d="M11.29,18.96c-0.91,0-1.64-1.03-1.64-2.3c0-1.27,0.74-2.3,1.64-2.3c0.91,0,1.64,1.03,1.64,2.3
		C12.94,17.93,12.2,18.96,11.29,18.96z M25.89,13.02c-3.6-3.53-2.89-7.57-2.47-9.98c0.06-0.36,0.14-0.81,0.17-1.13
		c-0.66,0.3-1.9,1.39-2.7,2.82c-0.17,0.3-0.48,0.47-0.8,0.47H5.17c-1.62,0-2.93,1.32-2.93,2.93v19.1c0,1.62,1.32,2.93,2.93,2.93
		h9.51v-1.88c-2.71-0.22-4.77-1.39-4.77-2.81c0-1.57,2.55-2.84,5.69-2.84c3.14,0,5.69,1.27,5.69,2.84c0,1.42-2.07,2.59-4.77,2.81
		v1.88h7.86c1.62,0,2.93-1.32,2.93-2.93V14.03C26.84,13.84,26.38,13.5,25.89,13.02z M10.99,21.65c-2.89,0.31-5.59-2.69-6.02-6.69
		c-0.43-4,1.57-7.5,4.46-7.81c2.89-0.31,5.59,2.69,6.02,6.69C15.89,17.84,13.89,21.34,10.99,21.65z M19.9,19.21
		c-1.01,0-1.82-1.15-1.82-2.56c0-1.41,0.82-2.56,1.82-2.56c1.01,0,1.82,1.15,1.82,2.56C21.72,18.07,20.91,19.21,19.9,19.21z"/>
</g>
<rect x="-1233.5" y="-44" class="st2" width="500" height="500"/>
<g>
	<path class="st0" d="M31.87,30.06l3.04-16.84c0.02-0.06,0.06-0.1,0.12-0.1h3.56c0.06,0,0.1,0.03,0.12,0.1l2.92,16.84
		c0.01,0.08-0.02,0.12-0.1,0.12h-2.72c-0.08,0-0.12-0.04-0.13-0.12l-0.26-1.8h-3.34l-0.26,1.8c-0.01,0.08-0.05,0.12-0.12,0.12h-2.73
		C31.9,30.18,31.87,30.14,31.87,30.06z M36.67,18.76l-1.1,6.88h2.36l-1.01-6.88l-0.14-0.91L36.67,18.76z"/>
	<path class="st0" d="M45.83,30.18h-2.45c-0.13,0-0.19-0.06-0.19-0.17l-0.02-16.7c0-0.13,0.06-0.19,0.19-0.19h2.21l4.14,9.66
		l-0.12-9.47c0-0.13,0.07-0.19,0.22-0.19h2.43c0.1,0,0.14,0.06,0.14,0.19l0.02,16.72c0,0.1-0.04,0.14-0.12,0.14h-2.15l-4.25-9.03
		l0.18,8.83C46.05,30.11,45.98,30.18,45.83,30.18z"/>
	<path class="st0" d="M57.43,30.18h-2.78c-0.08,0-0.12-0.04-0.12-0.12l0.02-16.84c0-0.06,0.03-0.1,0.1-0.1h2.75
		c0.06,0,0.1,0.03,0.1,0.1l0.02,16.84C57.52,30.14,57.49,30.18,57.43,30.18z"/>
	<path class="st0" d="M62.55,30.18h-2.78c-0.06,0-0.1-0.04-0.1-0.12l0.05-16.84c0-0.06,0.03-0.1,0.1-0.1h2.99
		c0.06,0,0.12,0.03,0.17,0.1l2.24,3.23l2.23-3.23c0.05-0.06,0.11-0.1,0.18-0.1h3c0.07,0,0.11,0.03,0.11,0.1l0.05,16.84
		c0,0.08-0.03,0.12-0.1,0.12h-2.78c-0.06,0-0.1-0.04-0.1-0.12l-0.02-12.51l-2.57,3.73l-2.55-3.73l-0.02,12.51
		C62.65,30.14,62.61,30.18,62.55,30.18z"/>
	<path class="st0" d="M72.01,30.06l3.04-16.84c0.02-0.06,0.06-0.1,0.12-0.1h3.56c0.06,0,0.1,0.03,0.12,0.1l2.92,16.84
		c0.01,0.08-0.02,0.12-0.1,0.12h-2.72c-0.08,0-0.12-0.04-0.13-0.12l-0.26-1.8h-3.34l-0.26,1.8c-0.01,0.08-0.05,0.12-0.12,0.12H72.1
		C72.04,30.18,72.01,30.14,72.01,30.06z M76.81,18.76l-1.1,6.88h2.36l-1.01-6.88l-0.14-0.91L76.81,18.76z"/>
	<path class="st2" d="M87.79,30.18h-4.39c-0.06,0-0.1-0.04-0.1-0.12l0.05-16.84c0-0.06,0.03-0.1,0.1-0.1h4.72
		c0.92,0,1.75,0.22,2.5,0.67c0.74,0.45,1.31,1.04,1.74,1.78c0.42,0.74,0.63,1.54,0.63,2.4c0,0.7-0.16,1.36-0.48,1.96
		c-0.32,0.61-0.7,1.1-1.14,1.47c0.47,0.47,0.84,1.02,1.1,1.64c0.26,0.62,0.4,1.28,0.4,1.96c0,0.95-0.23,1.82-0.68,2.6
		c-0.46,0.78-1.08,1.41-1.86,1.87C89.6,29.94,88.74,30.18,87.79,30.18z M87.79,22.85h-1.5l-0.02,4.33h1.52
		c0.59,0,1.1-0.22,1.52-0.65c0.42-0.43,0.63-0.94,0.63-1.53c0-0.59-0.21-1.1-0.63-1.52C88.88,23.06,88.38,22.85,87.79,22.85z
		 M88.16,16.03h-1.87v3.85h1.87c0.57,0,1.03-0.2,1.38-0.61c0.35-0.4,0.53-0.84,0.53-1.31c0-0.52-0.19-0.97-0.56-1.36
		C89.12,16.22,88.67,16.03,88.16,16.03z"/>
	<path class="st2" d="M99.21,30.42c-0.87,0-1.67-0.22-2.41-0.67c-0.73-0.45-1.31-1.04-1.75-1.79c-0.44-0.75-0.66-1.57-0.66-2.46
		l0.02-7.77c0-0.91,0.22-1.73,0.66-2.45c0.43-0.73,1.01-1.32,1.75-1.77c0.73-0.44,1.53-0.66,2.39-0.66c0.89,0,1.69,0.22,2.41,0.66
		c0.72,0.44,1.29,1.03,1.73,1.77c0.43,0.74,0.65,1.56,0.65,2.46l0.02,7.77c0,0.89-0.22,1.71-0.65,2.45
		c-0.44,0.75-1.02,1.35-1.75,1.8C100.9,30.19,100.09,30.42,99.21,30.42z M99.21,27.46c0.49,0,0.93-0.2,1.29-0.61
		c0.37-0.4,0.55-0.86,0.55-1.36l-0.02-7.77c0-0.54-0.17-1-0.51-1.38c-0.34-0.37-0.78-0.56-1.3-0.56c-0.5,0-0.93,0.18-1.29,0.55
		c-0.36,0.37-0.54,0.83-0.54,1.39v7.77c0,0.53,0.18,1,0.54,1.38C98.27,27.27,98.7,27.46,99.21,27.46z"/>
	<path class="st2" d="M107.86,30.18h-2.75c-0.06,0-0.08-0.04-0.07-0.12l2.8-8.75l-2.75-8.09c-0.02-0.06,0.01-0.1,0.07-0.1h2.75
		c0.08,0,0.13,0.03,0.14,0.1l1.64,5.83l1.66-5.83c0.02-0.06,0.07-0.1,0.15-0.1h2.72c0.06,0,0.09,0.03,0.07,0.1l-2.74,8.07l2.77,8.78
		c0.03,0.08,0.01,0.12-0.07,0.12h-2.74c-0.07,0-0.12-0.04-0.15-0.12l-1.66-6.33L108,30.06C108,30.14,107.95,30.18,107.86,30.18z"/>
</g>
</svg>
